<svg width="35" height="35" viewBox="0 0 35 35" fill="none" xmlns="http://www.w3.org/2000/svg">
<circle cx="17.5" cy="17.5" r="17" stroke="white" stroke-opacity="0.3"/>
<path fill-rule="evenodd" clip-rule="evenodd" d="M10.2929 17.7071C9.90237 17.3166 9.90237 16.6834 10.2929 16.2929L16.2929 10.2929C16.6834 9.90237 17.3166 9.90237 17.7071 10.2929L23.7071 16.2929C24.0976 16.6834 24.0976 17.3166 23.7071 17.7071C23.3166 18.0976 22.6834 18.0976 22.2929 17.7071L18 13.4142L18 25C18 25.5523 17.5523 26 17 26C16.4477 26 16 25.5523 16 25L16 13.4142L11.7071 17.7071C11.3166 18.0976 10.6834 18.0976 10.2929 17.7071Z" fill="white"/>
</svg>
