<svg width="48" height="48" viewBox="0 0 48 48" fill="none" xmlns="http://www.w3.org/2000/svg">
<path fill-rule="evenodd" clip-rule="evenodd" d="M24 48C37.2548 48 48 37.2548 48 24C48 10.7452 37.2548 0 24 0C10.7452 0 0 10.7452 0 24C0 37.2548 10.7452 48 24 48ZM21.0006 30.9998C21.0006 31.2649 21.1059 31.5192 21.2934 31.7068C21.4809 31.8943 21.7353 31.9996 22.0004 31.9996C22.2656 31.9996 22.5199 31.8943 22.7075 31.7068L29.7078 24.7064C29.8953 24.5189 30.0006 24.2646 30.0006 23.9994C30.0006 23.7342 29.8953 23.4799 29.7078 23.2924L22.7075 16.292C22.6152 16.1965 22.5049 16.1203 22.3829 16.0679C22.2609 16.0155 22.1296 15.9879 21.9968 15.9868C21.8641 15.9856 21.7324 16.0109 21.6095 16.0612C21.4866 16.1115 21.3749 16.1857 21.281 16.2796C21.1871 16.3735 21.1129 16.4852 21.0626 16.6081C21.0123 16.731 20.987 16.8627 20.9881 16.9955C20.9893 17.1282 21.0169 17.2595 21.0693 17.3815C21.1217 17.5035 21.1979 17.6138 21.2934 17.7061L27.5867 23.9994L21.2934 30.2927C21.1059 30.4803 21.0006 30.7346 21.0006 30.9998Z" fill="white"/>
</svg>
