<svg width="48" height="48" viewBox="0 0 48 48" fill="none" xmlns="http://www.w3.org/2000/svg">
<path fill-rule="evenodd" clip-rule="evenodd" d="M24 48C10.7452 48 0 37.2548 0 24C0 10.7452 10.7452 0 24 0C37.2548 0 48 10.7452 48 24C48 37.2548 37.2548 48 24 48ZM26.9994 30.9998C26.9994 31.2649 26.8941 31.5192 26.7066 31.7068C26.5191 31.8943 26.2647 31.9996 25.9996 31.9996C25.7344 31.9996 25.4801 31.8943 25.2925 31.7068L18.2922 24.7064C18.1047 24.5189 17.9994 24.2646 17.9994 23.9994C17.9994 23.7342 18.1047 23.4799 18.2922 23.2924L25.2925 16.292C25.3848 16.1965 25.4951 16.1203 25.6171 16.0679C25.7391 16.0155 25.8704 15.9879 26.0032 15.9868C26.1359 15.9856 26.2676 16.0109 26.3905 16.0612C26.5134 16.1115 26.6251 16.1857 26.719 16.2796C26.8129 16.3735 26.8871 16.4852 26.9374 16.6081C26.9877 16.731 27.013 16.8627 27.0119 16.9955C27.0107 17.1282 26.9831 17.2595 26.9307 17.3815C26.8783 17.5035 26.8021 17.6138 26.7066 17.7061L20.4133 23.9994L26.7066 30.2927C26.8941 30.4803 26.9994 30.7346 26.9994 30.9998Z" fill="white"/>
</svg>
